<svg width="82" height="82" viewBox="0 0 82 82" fill="none" xmlns="http://www.w3.org/2000/svg">
<path d="M82 40.9118C82.0143 63.6374 63.747 81.9857 41.0882 82C18.3579 82.0143 0.0143132 63.7518 8.39568e-06 41.0882C-0.0142964 18.3626 18.253 0.0143132 40.9118 8.39787e-06C63.6421 -0.0142964 81.9857 18.2482 82 40.9118ZM32.5435 50.3768C23.3121 42.2183 21.8959 32.5149 28.6144 24.7998C34.4794 18.0718 45.0316 17.3374 51.8359 23.2596C55.1928 26.1826 57.1287 29.8923 57.4625 34.3793C57.9679 41.1931 55.0449 46.3476 49.3087 50.3339C58.912 52.8992 65.1155 58.6784 68.4247 67.6189C78.2903 58.4209 82.6675 41.6699 76.7454 26.8215C70.518 11.2007 55.0688 1.5497 38.0699 2.70362C21.8244 3.80986 7.74368 15.7258 3.71926 31.4944C0.104911 45.6515 5.55981 60.8384 13.6468 67.4472C16.956 58.6068 23.1404 52.904 32.5482 50.3768H32.5435ZM41.627 52.4033C40.0201 52.4033 38.9139 52.3747 37.8076 52.4033C28.047 52.6799 19.4736 58.85 16.2598 67.8287C15.7496 69.2592 15.8354 70.1651 17.1706 71.2094C29.5061 80.8651 46.4621 82.1573 60.0755 74.366C67.0705 70.3606 67.4854 68.4962 62.6122 62.0305C57.2336 54.8924 49.9477 51.9027 41.627 52.3986V52.4033ZM40.9833 49.8189C48.6888 49.8237 54.9877 43.5343 55.002 35.824C55.0116 28.1233 48.7127 21.8053 41.0119 21.8006C33.3064 21.8006 26.998 28.0994 26.9932 35.7954C26.9932 43.5105 33.2778 49.8142 40.9833 49.8237V49.8189Z" fill="white"/>
</svg>
